<?xml version="1.0" encoding="utf-8"?>
<!-- Generator: Adobe Illustrator 16.0.0, SVG Export Plug-In . SVG Version: 6.00 Build 0)  -->
<!DOCTYPE svg PUBLIC "-//W3C//DTD SVG 1.1//EN" "http://www.w3.org/Graphics/SVG/1.1/DTD/svg11.dtd">
<svg version="1.1" id="Calque_1" xmlns="http://www.w3.org/2000/svg" xmlns:xlink="http://www.w3.org/1999/xlink" x="0px" y="0px"
	 width="24px" height="24px" viewBox="0 0 24 24" enable-background="new 0 0 24 24" xml:space="preserve">
<path fill="none" stroke="#FFFFFF" stroke-width="2" stroke-linecap="round" stroke-linejoin="round" d="M23,3
	c-0.957,0.675-2.018,1.192-3.141,1.53c-1.623-1.867-4.453-2.064-6.32-0.44C12.545,4.954,11.982,6.212,12,7.53v1
	C8.431,8.623,5.052,6.922,3,4c0,0-4,9,5,13c-2.06,1.398-4.513,2.1-7,2c9,5,20,0,20-11.5c-0.001-0.279-0.027-0.556-0.08-0.83
	C21.94,5.664,22.66,4.393,23,3z"/>
</svg>
