<?xml version="1.0" encoding="utf-8"?>
<!-- Generator: Adobe Illustrator 16.0.0, SVG Export Plug-In . SVG Version: 6.00 Build 0)  -->
<!DOCTYPE svg PUBLIC "-//W3C//DTD SVG 1.1//EN" "http://www.w3.org/Graphics/SVG/1.1/DTD/svg11.dtd">
<svg version="1.1" id="Calque_1" xmlns="http://www.w3.org/2000/svg" xmlns:xlink="http://www.w3.org/1999/xlink" x="0px" y="0px"
	 width="24px" height="24px" viewBox="0 0 24 24" enable-background="new 0 0 24 24" xml:space="preserve">
<path fill="none" stroke="#FFFFFF" stroke-width="2" stroke-linecap="round" stroke-linejoin="round" d="M9,19c-5,1.5-5-2.5-7-3
	 M16,22v-3.87c0.076-0.964-0.267-1.915-0.939-2.61c3.14-0.35,6.439-1.539,6.439-7c0-1.396-0.537-2.739-1.5-3.75
	c0.456-1.222,0.424-2.572-0.09-3.77c0,0-1.18-0.35-3.91,1.48c-2.292-0.621-4.708-0.621-7,0C6.27,0.65,5.09,1,5.09,1
	C4.576,2.198,4.544,3.548,5,4.77C4.03,5.789,3.493,7.144,3.5,8.55c0,5.42,3.3,6.61,6.44,7C9.274,16.238,8.933,17.176,9,18.13V22"/>
</svg>
