<?xml version="1.0" encoding="utf-8"?>
<!-- Generator: Adobe Illustrator 16.0.0, SVG Export Plug-In . SVG Version: 6.00 Build 0)  -->
<!DOCTYPE svg PUBLIC "-//W3C//DTD SVG 1.1//EN" "http://www.w3.org/Graphics/SVG/1.1/DTD/svg11.dtd">
<svg version="1.1" xmlns="http://www.w3.org/2000/svg" xmlns:xlink="http://www.w3.org/1999/xlink" x="0px" y="0px"
	 width="1373.726px" height="1697.66px" viewBox="0 0 1373.726 1697.66" enable-background="new 0 0 1373.726 1697.66"
	 xml:space="preserve">
<g id="Calque_1">
	
		<line fill="none" stroke="#21487F" stroke-width="8" stroke-miterlimit="10" x1="180.685" y1="894.339" x2="241.429" y2="248.851"/>
	
		<line fill="none" stroke="#21487F" stroke-width="14" stroke-miterlimit="10" x1="1227.05" y1="790.555" x2="241.431" y2="248.851"/>
	
		<line fill="none" stroke="#21487F" stroke-width="8" stroke-miterlimit="10" x1="627.356" y1="763.494" x2="241.429" y2="248.851"/>
	
		<line fill="none" stroke="#21487F" stroke-width="14" stroke-miterlimit="10" x1="241.429" y1="248.851" x2="563.546" y2="1579.354"/>
	
		<line fill="none" stroke="#21487F" stroke-width="14" stroke-miterlimit="10" x1="780.374" y1="248.853" x2="241.429" y2="248.851"/>
	
		<line fill="none" stroke="#21487F" stroke-width="14" stroke-miterlimit="10" x1="180.685" y1="894.339" x2="563.546" y2="1579.354"/>
	
		<line fill="none" stroke="#21487F" stroke-width="14" stroke-miterlimit="10" x1="1227.05" y1="790.555" x2="627.356" y2="763.494"/>
	
		<line fill="none" stroke="#21487F" stroke-width="14" stroke-miterlimit="10" x1="563.546" y1="1579.354" x2="627.356" y2="763.494"/>
	
		<line fill="none" stroke="#21487F" stroke-width="14" stroke-miterlimit="10" x1="180.685" y1="894.339" x2="780.374" y2="248.853"/>
	
		<line fill="none" stroke="#21487F" stroke-width="14" stroke-miterlimit="10" x1="1227.05" y1="790.555" x2="780.374" y2="248.853"/>
	
		<line fill="none" stroke="#21487F" stroke-width="8" stroke-miterlimit="10" x1="570.446" y1="1584.652" x2="1227.05" y2="789.834"/>
	
		<line fill="none" stroke="#21487F" stroke-width="8" stroke-miterlimit="10" x1="563.546" y1="1579.354" x2="780.374" y2="248.853"/>
	
		<line fill="none" stroke="#21487F" stroke-width="8" stroke-miterlimit="10" x1="163.136" y1="894.339" x2="1227.05" y2="790.553"/>
	
		<line fill="none" stroke="#21487F" stroke-width="8" stroke-miterlimit="10" x1="163.136" y1="894.339" x2="627.356" y2="763.494"/>
	
		<line fill="none" stroke="#21487F" stroke-width="18" stroke-miterlimit="10" x1="1227.05" y1="789.834" x2="901.938" y2="998.179"/>
	
		<line fill="none" stroke="#21487F" stroke-width="18" stroke-miterlimit="10" x1="901.938" y1="998.178" x2="563.546" y2="1596.863"/>
	
		<line fill="none" stroke="#21487F" stroke-width="18" stroke-miterlimit="10" x1="627.356" y1="763.494" x2="901.938" y2="998.178"/>
	<line fill="none" stroke="#21487F" stroke-width="8" stroke-miterlimit="10" x1="180.685" y1="894.34" x2="901.938" y2="998.178"/>
	
		<line fill="none" stroke="#21487F" stroke-width="8" stroke-miterlimit="10" x1="780.374" y1="248.853" x2="627.356" y2="763.494"/>
	
		<line fill="none" stroke="#21487F" stroke-width="8" stroke-miterlimit="10" x1="780.374" y1="248.853" x2="901.938" y2="998.178"/>
	
		<line fill="none" stroke="#21487F" stroke-width="8" stroke-miterlimit="10" x1="919.938" y1="998.178" x2="241.429" y2="248.851"/>
</g>
<g id="Calque_3">
	<circle fill="#21487F" cx="241.427" cy="241.13" r="74.012"/>
	<circle fill="#21487F" cx="780.373" cy="248.853" r="74.012"/>
	<circle fill="#21487F" cx="627.355" cy="763.494" r="74.012"/>
	<circle fill="#21487F" cx="180.684" cy="894.34" r="74.012"/>
	<circle fill="#21487F" cx="1227.048" cy="789.834" r="74.012"/>
	<circle fill="#21487F" cx="901.937" cy="998.178" r="74.011"/>
	<circle fill="#21487F" cx="563.544" cy="1579.354" r="74.012"/>
</g>
</svg>
